<svg class="svg" xmlns="http://www.w3.org/2000/svg" width="12" height="18" viewBox="0 0 12 18" style="fill: rgba(255, 255, 255, 0.9) !important;"><path fill="#1abcfe" fill-opacity="1" fill-rule="nonzero" stroke="none" d="M6 9c0-1.657 1.343-3 3-3 1.657 0 3 1.343 3 3 0 1.657-1.343 3-3 3-1.657 0-3-1.343-3-3" style="fill: rgb(26, 188, 254) !important; stroke: none !important; fill-opacity: 1 !important;"/><path fill="#0acf83" fill-opacity="1" fill-rule="nonzero" stroke="none" d="M0 15c0-1.657 1.343-3 3-3h3v3c0 1.657-1.343 3-3 3-1.657 0-3-1.343-3-3" style="fill: rgb(10, 207, 131) !important; stroke: none !important; fill-opacity: 1 !important;"/><path fill="#ff7262" fill-opacity="1" fill-rule="nonzero" stroke="none" d="M6 0v6h3c1.657 0 3-1.343 3-3 0-1.657-1.343-3-3-3z" style="fill: rgb(255, 114, 98) !important; stroke: none !important; fill-opacity: 1 !important;"/><path fill="#f24e1e" fill-opacity="1" fill-rule="nonzero" stroke="none" d="M0 3c0 1.657 1.343 3 3 3h3V0H3C1.343 0 0 1.343 0 3" style="fill: rgb(242, 78, 30) !important; stroke: none !important; fill-opacity: 1 !important;"/><path fill="#a259ff" fill-opacity="1" fill-rule="nonzero" stroke="none" d="M0 9c0 1.657 1.343 3 3 3h3V6H3C1.343 6 0 7.343 0 9" style="fill: rgb(162, 89, 255) !important; stroke: none !important; fill-opacity: 1 !important;"/></svg>